<svg xmlns="http://www.w3.org/2000/svg" viewBox="0 0 512 512">
  <defs>
    <linearGradient id="bgGradient" x1="0%" y1="0%" x2="0%" y2="100%">
      <stop offset="0%" style="stop-color:#764ba2;stop-opacity:1" />
      <stop offset="50%" style="stop-color:#f093fb;stop-opacity:1" />
      <stop offset="100%" style="stop-color:#f5576c;stop-opacity:1" />
    </linearGradient>
  </defs>
  
  <!-- Rounded square background with gradient -->
  <rect width="512" height="512" rx="100" ry="100" fill="url(#bgGradient)"/>
  
  <!-- Dog head and chest -->
  <g id="dog">
    <!-- Dog head shape -->
    <ellipse cx="256" cy="200" rx="140" ry="130" fill="#ffffff" opacity="0.95"/>
    
    <!-- Dog ears -->
    <ellipse cx="180" cy="140" rx="50" ry="60" fill="#ffffff" opacity="0.95"/>
    <ellipse cx="332" cy="140" rx="50" ry="60" fill="#ffffff" opacity="0.95"/>
    <ellipse cx="180" cy="140" rx="35" ry="45" fill="#e0e8f0"/>
    <ellipse cx="332" cy="140" rx="35" ry="45" fill="#e0e8f0"/>
    <ellipse cx="180" cy="140" rx="20" ry="25" fill="#f0b8d0"/>
    <ellipse cx="332" cy="140" rx="20" ry="25" fill="#f0b8d0"/>
    
    <!-- Dog snout -->
    <ellipse cx="256" cy="240" rx="80" ry="70" fill="#ffffff" opacity="0.95"/>
    <ellipse cx="256" cy="250" rx="60" ry="50" fill="#f0b8d0" opacity="0.3"/>
    
    <!-- Dog nose -->
    <ellipse cx="256" cy="230" rx="18" ry="16" fill="#2a2a3a"/>
    
    <!-- Dog eyes -->
    <circle cx="220" cy="180" r="20" fill="#2a2a3a"/>
    <circle cx="292" cy="180" r="20" fill="#2a2a3a"/>
    <circle cx="225" cy="180" r="8" fill="#ffffff"/>
    <circle cx="297" cy="180" r="8" fill="#ffffff"/>
    
    <!-- Subtle grey-blue spots on ears and chest -->
    <ellipse cx="180" cy="150" rx="15" ry="20" fill="#a0b0c0" opacity="0.4"/>
    <ellipse cx="332" cy="150" rx="15" ry="20" fill="#a0b0c0" opacity="0.4"/>
    <ellipse cx="200" cy="280" rx="25" ry="30" fill="#a0b0c0" opacity="0.3"/>
    <ellipse cx="312" cy="280" rx="25" ry="30" fill="#a0b0c0" opacity="0.3"/>
  </g>
  
  <!-- SW Letters -->
  <text x="256" y="320" font-family="Arial, sans-serif" font-size="140" font-weight="bold" fill="#1a1a3a" text-anchor="middle" letter-spacing="-10">SW</text>
</svg>
